HIERARCHY
ROOT hip
{
  OFFSET 0 0 0
  CHANNELS 6 Xposition Yposition Zposition Zrotation Yrotation Xrotation
  JOINT abdomen
  {
    OFFSET 0 20.6881 -0.73152
    CHANNELS 3 Zrotation Xrotation Yrotation
    JOINT chest
    {
      OFFSET 0 11.7043 -0.48768
      CHANNELS 3 Zrotation Xrotation Yrotation
      JOINT neck
      {
        OFFSET 0 22.1894 -2.19456
        CHANNELS 3 Zrotation Xrotation Yrotation
        JOINT head
        {
          OFFSET -0.24384 7.07133 1.2192
          CHANNELS 3 Zrotation Xrotation Yrotation
          JOINT leftEye
          {
            OFFSET 4.14528 8.04674 8.04672
            CHANNELS 3 Zrotation Xrotation Yrotation
            End Site
            {
              OFFSET 1 0 0
            }
          }
          JOINT rightEye
          {
            OFFSET -3.6576 8.04674 8.04672
            CHANNELS 3 Zrotation Xrotation Yrotation
            End Site
            {
              OFFSET 1 0 0
            }
          }
        }
      }
      JOINT rCollar
      {
        OFFSET -2.68224 19.2634 -4.8768
        CHANNELS 3 Zrotation Xrotation Yrotation
        JOINT rShldr
        {
          OFFSET -8.77824 -1.95073 1.46304
          CHANNELS 3 Zrotation Xrotation Yrotation
          JOINT rForeArm
          {
            OFFSET -28.1742 -1.7115 0.48768
            CHANNELS 3 Zrotation Xrotation Yrotation
            JOINT rHand
            {
              OFFSET -22.5879 0.773209 7.07136
              CHANNELS 3 Zrotation Xrotation Yrotation
              JOINT rThumb1
              {
                OFFSET -1.2192 -0.487915 3.41376
                CHANNELS 3 Zrotation Xrotation Yrotation
                JOINT rThumb2
                {
                  OFFSET -3.37035 -0.52449 3.41376
                  CHANNELS 3 Zrotation Xrotation Yrotation
                  End Site
                  {
                    OFFSET -1.78271 -1.18214 1.43049
                  }
                }
              }
              JOINT rIndex1
              {
                OFFSET -7.75947 0.938293 5.60832
                CHANNELS 3 Zrotation Xrotation Yrotation
                JOINT rIndex2
                {
                  OFFSET -2.54057 -0.884171 1.56538
                  CHANNELS 3 Zrotation Xrotation Yrotation
                  End Site
                  {
                    OFFSET -1.62519 -0.234802 1.16502
                  }
                }
              }
              JOINT rMid1
              {
                OFFSET -8.24714 1.18213 3.41376
                CHANNELS 3 Zrotation Xrotation Yrotation
                JOINT rMid2
                {
                  OFFSET -3.10165 -0.590103 1.0647
                  CHANNELS 3 Zrotation Xrotation Yrotation
                  End Site
                  {
                    OFFSET -2.48547 -0.328903 0.83742
                  }
                }
              }
              JOINT rRing1
              {
                OFFSET -8.82822 0.546677 1.51678
                CHANNELS 3 Zrotation Xrotation Yrotation
                JOINT rRing2
                {
                  OFFSET -2.60934 -0.819778 -0.0198488
                  CHANNELS 3 Zrotation Xrotation Yrotation
                  End Site
                  {
                    OFFSET -2.33842 -0.294052 0.168128
                  }
                }
              }
              JOINT rPinky1
              {
                OFFSET -8.27202 -0.0477905 -0.4584
                CHANNELS 3 Zrotation Xrotation Yrotation
                JOINT rPinky2
                {
                  OFFSET -1.82734 -0.647385 -0.700984
                  CHANNELS 3 Zrotation Xrotation Yrotation
                  End Site
                  {
                    OFFSET -1.69225 -0.51767 -0.607171
                  }
                }
              }
            }
          }
        }
      }
      JOINT lCollar
      {
        OFFSET 2.68224 19.2634 -4.8768
        CHANNELS 3 Zrotation Xrotation Yrotation
        JOINT lShldr
        {
          OFFSET 8.77824 -1.95073 1.46304
          CHANNELS 3 Zrotation Xrotation Yrotation
          JOINT lForeArm
          {
            OFFSET 28.1742 -1.7115 0.48768
            CHANNELS 3 Zrotation Xrotation Yrotation
            JOINT lHand
            {
              OFFSET 22.5879 0.773209 7.07136
              CHANNELS 3 Zrotation Xrotation Yrotation
              JOINT lThumb1
              {
                OFFSET 1.2192 -0.487915 3.41376
                CHANNELS 3 Zrotation Xrotation Yrotation
                JOINT lThumb2
                {
                  OFFSET 3.37035 -0.52449 3.41376
                  CHANNELS 3 Zrotation Xrotation Yrotation
                  End Site
                  {
                    OFFSET 1.78271 -1.18214 1.43049
                  }
                }
              }
              JOINT lIndex1
              {
                OFFSET 7.75947 0.938293 5.60832
                CHANNELS 3 Zrotation Xrotation Yrotation
                JOINT lIndex2
                {
                  OFFSET 2.54057 -0.884171 1.56538
                  CHANNELS 3 Zrotation Xrotation Yrotation
                  End Site
                  {
                    OFFSET 1.62519 -0.234802 1.16502
                  }
                }
              }
              JOINT lMid1
              {
                OFFSET 8.24714 1.18213 3.41376
                CHANNELS 3 Zrotation Xrotation Yrotation
                JOINT lMid2
                {
                  OFFSET 3.10165 -0.590103 1.0647
                  CHANNELS 3 Zrotation Xrotation Yrotation
                  End Site
                  {
                    OFFSET 2.48547 -0.328903 0.83742
                  }
                }
              }
              JOINT lRing1
              {
                OFFSET 8.82822 0.546677 1.51678
                CHANNELS 3 Zrotation Xrotation Yrotation
                JOINT lRing2
                {
                  OFFSET 2.60934 -0.819778 -0.0198488
                  CHANNELS 3 Zrotation Xrotation Yrotation
                  End Site
                  {
                    OFFSET 2.33842 -0.294052 0.168128
                  }
                }
              }
              JOINT lPinky1
              {
                OFFSET 8.27202 -0.0477905 -0.4584
                CHANNELS 3 Zrotation Xrotation Yrotation
                JOINT lPinky2
                {
                  OFFSET 1.82734 -0.647385 -0.700984
                  CHANNELS 3 Zrotation Xrotation Yrotation
                  End Site
                  {
                    OFFSET 1.69225 -0.51767 -0.607171
                  }
                }
              }
            }
          }
        }
      }
    }
  }
  JOINT rButtock
  {
    OFFSET -8.77824 4.35084 1.2192
    CHANNELS 3 Zrotation Xrotation Yrotation
    JOINT rThigh
    {
      OFFSET 0 -1.70687 -2.19456
      CHANNELS 3 Zrotation Xrotation Yrotation
      JOINT rShin
      {
        OFFSET 0 -36.8199 0.73152
        CHANNELS 3 Zrotation Xrotation Yrotation
        JOINT rFoot
        {
          OFFSET 0.73152 -45.1104 -5.12064
          CHANNELS 3 Zrotation Xrotation Yrotation
          End Site
          {
            OFFSET -1.1221 -3.69964 12.103
          }
        }
      }
    }
  }
  JOINT lButtock
  {
    OFFSET 8.77824 4.35084 1.2192
    CHANNELS 3 Zrotation Xrotation Yrotation
    JOINT lThigh
    {
      OFFSET 0 -1.70687 -2.19456
      CHANNELS 3 Zrotation Xrotation Yrotation
      JOINT lShin
      {
        OFFSET 0 -36.8199 0.73152
        CHANNELS 3 Zrotation Xrotation Yrotation
        JOINT lFoot
        {
          OFFSET -0.73152 -45.1104 -5.12064
          CHANNELS 3 Zrotation Xrotation Yrotation
          End Site
          {
            OFFSET 1.1221 -3.69964 12.103
          }
        }
      }
    }
  }
}
MOTION
Frames:	4
Frame Time:	0.00833333
-220.76 85.4571 53.8082 0.0 0.0 0.0 1.92989 -0.00172174 0.0523828 0.532083 0.00507124 0.0921228 4.62988e-14 0.0 -1.2424e-16 1.38124e-13 3.18055e-15 -3.97569e-16 -0.0 0.0 0.0 -0.0 0.0 0.0 2.29087e-14 -1.07934e-16 9.93923e-17 4.86378e-13 -2.01269e-15 9.93923e-16 8.34503e-12 -2.57029e-12 -1.33583e-13 9.54376e-11 2.08257e-12 -1.27222e-13 2.25134e-10 -1.06414e-12 -5.85222e-13 3.88787e-10 -1.84154e-12 -1.03448e-12 2.25138e-10 -1.06509e-12 -5.91583e-13 7.73091 5.47488 0.417314 2.25133e-10 -1.06449e-12 -5.88403e-13 2.90554 0.965183 0.102902 2.25139e-10 -1.06459e-12 -5.92378e-13 10.2786 0.731801 0.0259123 2.25121e-10 -1.05992e-12 -5.88403e-13 2.22167 -0.733487 -0.20892 2.28133e-14 -1.12399e-16 -2.98177e-16 4.81589e-13 -2.3233e-15 -7.95139e-16 8.32933e-12 2.41861e-12 -8.90555e-14 9.54239e-11 -2.91031e-12 -1.65389e-13 2.25085e-10 -1.06839e-12 -5.85222e-13 3.88731e-10 -1.84472e-12 -1.01619e-12 2.25079e-10 -1.06747e-12 -5.69319e-13 -7.73091 5.47488 -0.417314 2.25084e-10 -1.06857e-12 -5.85222e-13 -2.90554 0.965183 -0.102902 2.2508e-10 -1.06857e-12 -5.84427e-13 -10.2786 0.731801 -0.0259123 2.25092e-10 -1.06509e-12 -5.97944e-13 -2.22167 -0.733487 0.20892 -2.03217e-16 0.0 -3.88251e-19 1.95929 -7.26118 -0.192005 0.00412196 7.58532 0.107075 -0.521084 -0.330685 0.0523053 2.03217e-16 0.0 3.88251e-19 0.976491 -1.92613 0.00087297 0.00898853 -2.0786 0.074075 0.488072 3.99809 -0.136767
-215.46 84.9917 52.3141 -17.1871 53.0135 -18.4148 -1.93305 5.49649 0.961203 0.906085 -1.32153 0.235995 -0.0339181 -2.78548 1.60254 -0.128212 -1.40321 3.16447 -0.0 0.0 0.0 -0.0 0.0 0.0 2.19318e-14 -2.66507e-13 -3.34183e-13 13.4886 -1.14133 -3.14288 -4.16448 -1.88114 6.51673 0.00920868 -2.14271 -0.300396 -6.56877e-10 1.64146e-09 -3.53444e-09 -1.11118e-09 2.7519e-09 -6.12469e-09 -6.56874e-10 1.64146e-09 -3.53445e-09 7.73091 5.47488 0.417314 -6.56877e-10 1.64146e-09 -3.53445e-09 2.90554 0.965183 0.102902 -6.56872e-10 1.64146e-09 -3.53445e-09 10.2786 0.731801 0.0259123 -6.56887e-10 1.64146e-09 -3.53444e-09 2.22167 -0.733487 -0.20892 2.1833e-14 -2.66521e-13 -3.3454e-13 -8.05293 9.11804 -13.0958 11.4107 -8.3174 -13.1383 -0.0476582 -4.84584 0.672271 1.11093e-09 5.40978e-10 7.11327e-10 1.90607e-09 8.83153e-10 1.25207e-09 1.11093e-09 5.40977e-10 7.11343e-10 -7.73091 5.47488 -0.417314 1.11093e-09 5.40978e-10 7.11327e-10 -2.90554 0.965183 -0.102902 1.11093e-09 5.40977e-10 7.11328e-10 -10.2786 0.731801 -0.0259123 1.11094e-09 5.40981e-10 7.11315e-10 -2.22167 -0.733487 0.20892 -2.03217e-16 0.0 -3.88251e-19 -5.88046 -11.9984 -9.01586 -0.0096258 17.2769 0.254242 -1.49552 -4.91178 -6.20443 2.03217e-16 0.0 3.88251e-19 1.79714 -0.975039 3.34585 0.0177094 4.55752 -0.00572007 0.570139 3.03734 2.69723
-214.371 86.1542 52.522 -17.0643 52.8618 -18.7781 -6.18812 11.2942 1.97632 1.29927 -2.72569 0.396655 0.0952587 -5.7434 3.29699 -0.0699166 -2.86572 6.49499 -0.0 0.0 0.0 -0.0 0.0 0.0 2.14662e-14 -5.68461e-13 -7.1692e-13 27.6678 -2.33455 -6.42934 -8.09403 -3.78087 13.4116 -0.00556609 -4.37956 -0.615424 -1.69519e-09 3.59385e-09 -7.56577e-09 -2.87778e-09 6.02878e-09 -1.31106e-08 -1.69519e-09 3.59385e-09 -7.56577e-09 7.73091 5.47488 0.417314 -1.69519e-09 3.59385e-09 -7.56577e-09 2.90554 0.965183 0.102902 -1.69518e-09 3.59385e-09 -7.56577e-09 10.2786 0.731801 0.0259123 -1.6952e-09 3.59385e-09 -7.56576e-09 2.22167 -0.733487 -0.20892 2.13641e-14 -5.68486e-13 -7.17234e-13 -12.1287 17.2027 -27.8794 19.3248 -15.6034 -27.8322 0.0273502 -9.97075 1.39975 2.14735e-09 1.23559e-09 1.49879e-09 3.68202e-09 2.02416e-09 2.63918e-09 2.14735e-09 1.23559e-09 1.49881e-09 -7.73091 5.47488 -0.417314 2.14735e-09 1.2356e-09 1.49879e-09 -2.90554 0.965183 -0.102902 2.14735e-09 1.23559e-09 1.4988e-09 -10.2786 0.731801 -0.0259123 2.14736e-09 1.2356e-09 1.49878e-09 -2.22167 -0.733487 0.20892 -2.03217e-16 0.0 -3.88251e-19 -15.8089 -16.3775 -18.7262 -0.085141 27.4791 0.435933 -3.61397 -9.55511 -12.9566 2.03217e-16 0.0 3.88251e-19 2.51513 -0.0183401 6.8549 0.0471667 11.5873 -0.0926048 0.767258 1.94636 5.67121
-213.261 87.3141 52.6712 -16.7421 52.8441 -18.8317 -10.2013 16.4755 2.8841 1.67412 -3.97459 0.524814 0.369327 -8.33014 4.85327 0.0790389 -4.15825 9.51583 -0.0 0.0 0.0 -0.0 0.0 0.0 1.9978e-14 -7.99304e-13 -1.00275e-12 40.0914 -3.3828 -9.44337 -11.2327 -5.35201 19.6287 -0.0401379 -6.42741 -0.906254 -2.4209e-09 4.9265e-09 -1.06022e-08 -4.11112e-09 8.25939e-09 -1.8372e-08 -2.4209e-09 4.9265e-09 -1.06022e-08 7.73091 5.47488 0.417314 -2.4209e-09 4.9265e-09 -1.06022e-08 2.90554 0.965183 0.102902 -2.42089e-09 4.92651e-09 -1.06022e-08 10.2786 0.731801 0.0259123 -2.4209e-09 4.9265e-09 -1.06022e-08 2.22167 -0.733487 -0.20892 1.98724e-14 -7.99337e-13 -1.00302e-12 -12.0206 21.5202 -42.3222 23.2476 -19.6326 -41.9178 0.207687 -14.5294 2.07603 2.88262e-09 1.62507e-09 2.13515e-09 4.94074e-09 2.65315e-09 3.75824e-09 2.88262e-09 1.62506e-09 2.13517e-09 -7.73091 5.47488 -0.417314 2.88263e-09 1.62507e-09 2.13515e-09 -2.90554 0.965183 -0.102902 2.88262e-09 1.62507e-09 2.13515e-09 -10.2786 0.731801 -0.0259123 2.88263e-09 1.62507e-09 2.13514e-09 -2.22167 -0.733487 0.20892 -2.03217e-16 0.0 -3.88251e-19 -25.9649 -19.5833 -27.8052 -0.222944 36.6587 0.643277 -6.45651 -13.4026 -19.1915 2.03217e-16 0.0 3.88251e-19 3.10682 0.908041 10.0356 0.092282 17.8297 -0.173491 1.01883 1.11396 8.35477
